<svg id="_404" data-name="404" xmlns="http://www.w3.org/2000/svg" xmlns:xlink="http://www.w3.org/1999/xlink" viewBox="0 0 4944.95 2447.01"><defs><style>.cls-1{fill:none;}.cls-2{fill:#e2f0fe;}.cls-3{clip-path:url(#clip-path);}.cls-13,.cls-4,.cls-6{fill:#3b6fa3;}.cls-4{opacity:0.08;}.cls-5{fill:#f0f7fc;}.cls-12,.cls-6{opacity:0.31;}.cls-7{clip-path:url(#clip-path-3);}.cls-8,.cls-9{fill:#86b2e8;}.cls-8{opacity:0.14;}.cls-10{fill:#fff;}.cls-11{clip-path:url(#clip-path-4);}</style><clipPath id="clip-path" transform="translate(1068.69 247.07)"><rect class="cls-1" width="3000" height="2025"/></clipPath><clipPath id="clip-path-3" transform="translate(1068.69 247.07)"><path class="cls-2" d="M1068.16,1177.44a7.59,7.59,0,0,0,9.95,4l22.66-9.63a7.59,7.59,0,0,0,4-9.94l-1.4-3.29,18.89-8a19.46,19.46,0,0,0,10.3-25.53L1077,994.36a19.46,19.46,0,0,0-25.52-10.3l-18.9,8-1.39-3.29a7.59,7.59,0,0,0-10-4l-22.66,9.63a7.6,7.6,0,0,0-4,10l1.4,3.28-10.71,4.55-1.39-3.28a7.59,7.59,0,0,0-10-4l-22.66,9.63a7.59,7.59,0,0,0-4,9.94l1.4,3.29L815.48,1084.4a19.46,19.46,0,0,0-10.29,25.53l55.55,130.67a19.48,19.48,0,0,0,25.53,10.3l133.18-56.63,1.39,3.29a7.59,7.59,0,0,0,9.95,4l22.66-9.63a7.6,7.6,0,0,0,4-10l-1.4-3.28,10.71-4.55Z"/></clipPath><clipPath id="clip-path-4" transform="translate(1068.69 247.07)"><path class="cls-2" d="M2196.74,576.79l53.1,115a17.49,17.49,0,0,1-8.55,23.21L1899.91,872.62a17.5,17.5,0,0,1-23.22-8.55l-53.1-115a17.49,17.49,0,0,1,8.55-23.21l341.38-157.58A17.5,17.5,0,0,1,2196.74,576.79Z"/></clipPath></defs><g class="cls-3"><g class="cls-3"><circle class="cls-4" cx="2588.72" cy="1172.76" r="498.22"/><circle class="cls-5" cx="2568.69" cy="1155.47" r="498.22"/><path class="cls-6" d="M1124.57,1155.89l98.31-41.8-50.6-119-98.3,41.8-2.49-5.84a19.46,19.46,0,0,0-25.52-10.3l-18.9,8-1.39-3.29a7.59,7.59,0,0,0-10-4l-22.66,9.64a7.59,7.59,0,0,0-4,9.94l1.4,3.28-10.71,4.56-1.39-3.29a7.58,7.58,0,0,0-9.94-4l-22.66,9.63a7.58,7.58,0,0,0-4,10l1.39,3.28L810,1121.09a19.46,19.46,0,0,0-10.29,25.53L812.14,1176l-44.21,18.8,7.76,18.27c-110.46,47.55-234.71,99.8-355.23,103.24-51.59,1.48-151.7-17.62-242.51-162.1-24.8-39.46-44.92-81.69-61.34-117.79-2.85-6.26-5.61-13-8.53-20.06-14.06-34.13-30-72.81-67.21-91.58-53.16-26.81-100.63,3.33-138.77,27.55-4.64,2.94-9.21,5.85-13.72,8.61-12.17,7.43-24.7,15.5-36.81,23.3-63.79,41.09-129.76,83.58-201.34,76.5-64.58-6.38-122.22-49.08-154.18-114.23-64-130.34-53.35-262.18,32.46-403,75.62-124.15,195.5-234.1,301.26-331.11,16-14.68,31.11-28.54,45.92-42.31,30.1-28,64-61.33,85.71-103C-13.93,19.57-10-31.36-27.75-72.72c-15.2-35.39-47.1-65.58-94.81-89.73-77.13-39.05-159.3-55.52-244.23-48.93-73.63,5.71-151.52,29-231.48,69.28-143,72-270.66,184.42-387.38,295.21l-83,78.83,25.84,27.23,83-78.84C-845.18,71.53-720-38.78-581.39-108.57c75.58-38.05,148.76-60.05,217.51-65.39,78-6,153.46,9.09,224.37,45,39.64,20.07,65.64,44,77.28,71.06,13.11,30.52,9.5,70.73-9.67,107.58-18.92,36.36-50.17,67-78,92.83-14.71,13.69-29.78,27.5-45.73,42.14-107.6,98.69-229.56,210.55-308,339.25-43.53,71.45-68.53,139.43-76.46,207.83-9,77.82,5.24,155.63,42.36,231.26a268.39,268.39,0,0,0,24.84,41c39.48,53.58,96.55,87.82,159.34,94,84.6,8.37,159.39-39.79,225.36-82.29,12.49-8,24.28-15.63,36.06-22.84C-87.35,990-82.6,987-77.78,984-36.94,958-7.79,942.23,24,958.25c24.74,12.47,37.28,42.92,49.41,72.36,2.92,7.09,5.94,14.42,9.07,21.3,16.93,37.24,37.74,80.88,63.74,122.23,43.24,68.8,136.51,183.61,275.35,179.64,127.54-3.64,255.33-57.35,368.85-106.22l7.84,18.44,44.21-18.8,12.79,30.09a19.47,19.47,0,0,0,25.53,10.3L1013.93,1231l1.4,3.28a7.58,7.58,0,0,0,9.94,4l22.66-9.63a7.58,7.58,0,0,0,4-9.94l-1.4-3.29,10.71-4.55,1.4,3.28a7.57,7.57,0,0,0,9.94,4l22.66-9.63a7.59,7.59,0,0,0,4-9.94l-1.4-3.29,18.9-8a19.46,19.46,0,0,0,10.29-25.53Z" transform="translate(1068.69 247.07)"/><path class="cls-2" d="M1068.16,1177.44a7.59,7.59,0,0,0,9.95,4l22.66-9.63a7.59,7.59,0,0,0,4-9.94l-1.4-3.29,18.89-8a19.46,19.46,0,0,0,10.3-25.53L1077,994.36a19.46,19.46,0,0,0-25.52-10.3l-18.9,8-1.39-3.29a7.59,7.59,0,0,0-10-4l-22.66,9.63a7.6,7.6,0,0,0-4,10l1.4,3.28-10.71,4.55-1.39-3.28a7.59,7.59,0,0,0-10-4l-22.66,9.63a7.59,7.59,0,0,0-4,9.94l1.4,3.29L815.48,1084.4a19.46,19.46,0,0,0-10.29,25.53l55.55,130.67a19.48,19.48,0,0,0,25.53,10.3l133.18-56.63,1.39,3.29a7.59,7.59,0,0,0,9.95,4l22.66-9.63a7.6,7.6,0,0,0,4-10l-1.4-3.28,10.71-4.55Z" transform="translate(1068.69 247.07)"/><g class="cls-7"><polyline class="cls-8" points="1899.7 1421.64 2192.32 1298.28 2136.8 1194.45 1841.76 1323.98 1868.36 1393.69 1899.7 1421.64"/></g><rect class="cls-9" x="1089.29" y="985.38" width="129.31" height="106.82" transform="translate(2727.12 -182.53) rotate(66.97)"/><rect class="cls-10" x="1154.8" y="968.62" width="19.31" height="26.52" transform="translate(2681.15 -226.84) rotate(66.97)"/><rect class="cls-10" x="1167.42" y="998.29" width="19.31" height="26.52" transform="translate(2716.14 -220.39) rotate(66.97)"/><rect class="cls-10" x="1180.03" y="1027.97" width="19.31" height="26.52" transform="translate(2751.14 -213.93) rotate(66.97)"/><rect class="cls-10" x="1192.65" y="1057.64" width="19.31" height="26.52" transform="translate(2786.1 -207.49) rotate(66.97)"/><rect class="cls-9" x="935.56" y="1087.37" width="180.92" height="11.63" transform="translate(2699.3 -31.69) rotate(66.97)"/><rect class="cls-9" x="769.06" y="1160.12" width="77.42" height="51.71" transform="translate(2651.84 225.65) rotate(66.97)"/><path class="cls-9" d="M-511.91,969.73a268.39,268.39,0,0,1-24.84-41c-37.12-75.64-51.37-153.44-42.35-231.26,7.92-68.4,32.93-136.38,76.45-207.83,78.39-128.7,200.35-240.56,308-339.26,15.95-14.63,31-28.45,45.73-42.13,27.8-25.85,59.05-56.47,78-92.83,19.17-36.85,22.79-77.07,9.67-107.58-11.64-27.08-37.64-51-77.28-71.06-70.91-35.91-146.4-51-224.37-45-68.75,5.34-141.93,27.34-217.51,65.39C-719.1-73.06-844.28,37.25-958.9,146.05l-83.05,78.83-25.84-27.22,83-78.83C-868,8-740.32-104.4-597.37-176.38c80-40.26,157.85-63.57,231.49-69.28,84.92-6.59,167.09,9.87,244.23,48.93C-73.95-172.58-42-142.4-26.85-107-9.07-65.64-13-14.71-37.7,32.72c-21.68,41.67-55.61,75-85.71,103-14.81,13.77-29.92,27.63-45.92,42.31C-275.09,275-395,385-470.59,509.14-556.4,650-567,781.84-503,912.18c32,65.14,89.6,107.84,154.18,114.23,71.58,7.08,137.55-35.41,201.34-76.5,12.12-7.8,24.64-15.87,36.81-23.31,4.51-2.75,9.09-5.66,13.72-8.6,38.14-24.22,85.61-54.36,138.77-27.55C79,909.22,94.92,947.9,109,982c2.92,7.09,5.68,13.8,8.53,20.06,16.42,36.1,36.54,78.33,61.35,117.79,90.8,144.48,190.92,163.57,242.5,162.1,123.75-3.53,251.44-58.53,364.1-107.06l16.31-7,14.82,34.48-16.28,7c-115.75,49.86-246.95,106.37-377.87,110.11-138.85,4-232.12-110.84-275.36-179.64-26-41.35-46.81-85-63.74-122.23-3.13-6.88-6.15-14.21-9.07-21.3C62.15,966.89,49.6,936.44,24.86,924c-31.75-16-60.9-.22-101.74,25.71-4.82,3.06-9.57,6.08-14.26,9-11.79,7.21-23.58,14.8-36.07,22.84-66,42.49-140.75,90.66-225.36,82.29C-415.35,1057.55-472.42,1023.3-511.91,969.73Z" transform="translate(1068.69 247.07)"/><path class="cls-6" d="M3873.88,1420c-60.23.34-138.8-40.14-178.56-131.33-49.05-112.51-23.54-233.63,1.11-350.76q2.82-13.41,5.59-26.73l1.41-6.8c28-135.53,57-275.72,57.51-416.83.28-86.09-16.88-174-48.31-247.43-37.6-87.86-94.7-152.65-165.15-187.36C3481.41,20.19,3407.22,17,3349,44.28c-51.85,24.27-87,69.08-101.61,129.57-24.17,100-4.44,204.41,14.64,305.43,2.45,13,4.88,25.83,7.19,38.56q1.88,10.35,3.82,20.87c26.69,145.6,56.95,310.63-40.19,432.12-29.73,37.18-63,56.55-101.77,59.21-101.31,7-217-102.81-309.92-191-36.23-34.38-67.51-64.06-94.08-83.34-167.68-121.64-317.73-161-458-120.09l-11.46-24.82L2205.1,635,2194.46,612a17.49,17.49,0,0,0-23.21-8.55l-134.26,62-2.61-5.67a9.05,9.05,0,0,0-12-4.42l-132.49,61.16a9,9,0,0,0-4.42,12l2.61,5.66L1829.87,761a17.5,17.5,0,0,0-8.55,23.22L1838.78,822l-133,61.81a21.33,21.33,0,0,0,17.87,38.73l133.13-61.65,17.69,38.32a17.49,17.49,0,0,0,23.21,8.55l58.19-26.86,2.62,5.66a9,9,0,0,0,12,4.42l132.49-61.15a9.07,9.07,0,0,0,4.43-12l-2.62-5.66,134.26-62a17.5,17.5,0,0,0,8.55-23.22l-7.95-17.22-2.69-5.84,52.5-24.24L2276.61,652c134-38,278.18.75,440,118.16,25.62,18.58,56.51,47.9,92.28,81.84,95.47,90.59,214.28,203.33,323.39,195.84,43.39-3,81.89-25.13,114.45-65.84,102.21-127.83,71.18-297.11,43.79-446.45q-1.92-10.5-3.81-20.83c-2.31-12.78-4.75-25.68-7.21-38.69-18.73-99.17-38.12-201.7-14.83-298,13.31-55,45.08-95.73,91.86-117.64,53.35-25,121.79-21.86,183.06,8.32,66.58,32.81,120.75,94.5,156.65,178.4,30.5,71.29,47.15,156.65,46.87,240.38-.46,139.31-29.28,278.6-57.14,413.28l-1.41,6.8q-2.74,13.27-5.58,26.66c-25.24,119.88-51.32,243.81,0,361.54,17.09,39.2,44.69,74.75,77.72,100.1,36,27.65,76.57,42.15,117.25,41.92Z" transform="translate(1068.69 247.07)"/><path class="cls-2" d="M2196.74,576.79l53.1,115a17.49,17.49,0,0,1-8.55,23.21L1899.91,872.62a17.5,17.5,0,0,1-23.22-8.55l-53.1-115a17.49,17.49,0,0,1,8.55-23.21l341.38-157.58A17.5,17.5,0,0,1,2196.74,576.79Z" transform="translate(1068.69 247.07)"/><g class="cls-11"><polygon class="cls-8" points="3298.3 881.36 2894.55 1063.08 2861.76 962.29 3005.05 855.43 3279.5 780.14 3298.3 881.36"/></g><path class="cls-9" d="M2036.65,624.55l73,158.13a9,9,0,0,1-4.42,12l-132.49,61.16a9.06,9.06,0,0,1-12-4.43l-73-158.12a9.07,9.07,0,0,1,4.43-12l132.49-61.16A9.05,9.05,0,0,1,2036.65,624.55Z" transform="translate(1068.69 247.07)"/><path class="cls-2" d="M2093.31,775.92h0a6.51,6.51,0,0,1-3.18,8.64L1975,837.71a6.51,6.51,0,0,1-8.64-3.18h0a6.51,6.51,0,0,1,3.18-8.64l115.14-53.15A6.51,6.51,0,0,1,2093.31,775.92Z" transform="translate(1068.69 247.07)"/><path class="cls-2" d="M2080.89,749h0a6.51,6.51,0,0,1-3.19,8.64L1962.56,810.8a6.5,6.5,0,0,1-8.63-3.18h0a6.5,6.5,0,0,1,3.18-8.64l115.14-53.15A6.51,6.51,0,0,1,2080.89,749Z" transform="translate(1068.69 247.07)"/><path class="cls-2" d="M2068.46,722.1h0a6.51,6.51,0,0,1-3.18,8.64l-115.14,53.15a6.52,6.52,0,0,1-8.64-3.19h0a6.51,6.51,0,0,1,3.18-8.63l115.15-53.15A6.5,6.5,0,0,1,2068.46,722.1Z" transform="translate(1068.69 247.07)"/><path class="cls-2" d="M2056,695.19h0a6.51,6.51,0,0,1-3.18,8.64L1937.72,757a6.5,6.5,0,0,1-8.64-3.18h0a6.51,6.51,0,0,1,3.18-8.64L2047.4,692A6.5,6.5,0,0,1,2056,695.19Z" transform="translate(1068.69 247.07)"/><path class="cls-2" d="M2043.62,668.28h0a6.5,6.5,0,0,1-3.18,8.63L1925.3,730.06a6.51,6.51,0,0,1-8.64-3.18h0a6.51,6.51,0,0,1,3.18-8.64L2035,665.09A6.52,6.52,0,0,1,2043.62,668.28Z" transform="translate(1068.69 247.07)"/><path class="cls-2" d="M2031.2,641.36h0A6.51,6.51,0,0,1,2028,650l-115.14,53.15a6.5,6.5,0,0,1-8.63-3.18h0a6.5,6.5,0,0,1,3.18-8.64l115.14-53.15A6.51,6.51,0,0,1,2031.2,641.36Z" transform="translate(1068.69 247.07)"/><path class="cls-9" d="M1841.2,787.19l17.88,38.73-133.2,61.49a21.34,21.34,0,0,1-28.3-10.43h0A21.33,21.33,0,0,1,1708,848.67Z" transform="translate(1068.69 247.07)"/><rect class="cls-9" x="2211.59" y="593.27" width="75.9" height="57.83" transform="translate(3696.11 3172.47) rotate(-114.78)"/><path class="cls-9" d="M2253.52,606.07c145.39-49.79,301-12.35,475.85,114.46,26.56,19.27,57.85,49,94.08,83.34,92.94,88.19,208.6,198,309.91,191,38.76-2.66,72-22,101.78-59.2,97.14-121.5,66.88-286.53,40.18-432.13q-1.92-10.51-3.81-20.86c-2.31-12.73-4.74-25.6-7.19-38.56-19.08-101-38.82-205.47-14.64-305.44C3264.3,78.18,3299.44,33.38,3351.29,9.1c58.2-27.25,132.4-24.08,198.47,8.47,70.44,34.71,127.55,99.5,165.15,187.36,31.43,73.47,48.59,161.35,48.3,247.44-.46,141.11-29.47,281.29-57.51,416.83l-1.4,6.8q-2.76,13.31-5.6,26.73c-24.64,117.12-50.15,238.24-1.1,350.76,39.75,91.19,118.32,131.67,178.55,131.33l.1,17.8c-40.67.22-81.21-14.27-117.24-41.92-33-25.35-60.64-60.9-77.72-100.1-51.33-117.73-25.24-241.66,0-361.54,1.87-8.92,3.75-17.81,5.58-26.66l1.41-6.81c27.86-134.67,56.68-274,57.14-413.28.27-83.72-16.37-169.09-46.88-240.37-35.9-83.91-90.07-145.59-156.65-178.4-61.27-30.19-129.7-33.3-183-8.32-46.79,21.9-78.55,62.58-91.86,117.64-23.29,96.24-3.9,198.78,14.83,298,2.46,13,4.89,25.91,7.21,38.68q1.88,10.33,3.81,20.83c27.38,149.35,58.41,318.62-43.79,446.45-32.56,40.71-71.07,62.87-114.46,65.85-109.11,7.49-227.92-105.25-323.38-195.84-35.77-33.94-66.67-63.26-92.28-81.85-169.78-123.16-320.12-159.8-459.63-112Z" transform="translate(1068.69 247.07)"/><path class="cls-9" d="M1470.23,1120.91a32.17,32.17,0,0,1,6.9-10.27,32.59,32.59,0,0,1,10.27-6.91,32.76,32.76,0,0,1,25.2,0,32.18,32.18,0,0,1,17.17,17.18,32.64,32.64,0,0,1,0,25.2,32.21,32.21,0,0,1-17.17,17.17,32.76,32.76,0,0,1-25.2,0,32.21,32.21,0,0,1-17.17-17.17,32.64,32.64,0,0,1,0-25.2Zm76.82-507.45q0-27.59-10.54-41.38T1500,558.29q-26,0-36.51,13.79T1453,613.46V779.29l24.33,247v-.65q1.62,12.33,8.44,16.87a24.81,24.81,0,0,0,28.4.17q6.64-4.38,8.27-16.39l24.66-247Z" transform="translate(1068.69 247.07)"/></g><g class="cls-12"><path class="cls-13" d="M-145.38,729.19l-16.53-42.93A1149,1149,0,0,0,95.32,547.14a1149.4,1149.4,0,0,0,214-199.27c14.65-17.65,29.31-36.35,43.48-54.42C411,219.26,471.16,142.54,558.08,99.61,637.31,60.47,736.89,51.43,854,72.73c52.24,9.5,103.79,23.77,153.64,37.57,41.22,11.41,83.84,23.21,126,32,80.32,16.8,164.16,23.65,249.2,20.37,82-3.17,165.61-15.77,248.35-37.46,160.5-42.06,317.48-118.45,454-220.92l27.62,36.79c-141.22,106-303.73,185.07-469.93,228.63-86,22.53-172.86,35.63-258.25,38.92-88.78,3.43-176.39-3.74-260.39-21.31-43.62-9.12-87-21.12-128.88-32.73C946.53,141.1,896,127.11,845.8,118c-107.22-19.5-197.16-11.81-267.35,22.86C500.91,179.15,444,251.69,389,321.83c-14.37,18.33-29.23,37.27-44.28,55.42A1195.72,1195.72,0,0,1,122.15,584.5,1194.64,1194.64,0,0,1-145.38,729.19Z" transform="translate(1068.69 247.07)"/></g><path class="cls-9" d="M-145.38,709.23l-16.53-42.93A1149.08,1149.08,0,0,0,95.32,527.17a1149.4,1149.4,0,0,0,214-199.27c14.65-17.65,29.31-36.34,43.48-54.42C411,199.29,471.16,122.57,558.08,79.64,637.31,40.5,736.89,31.46,854,52.76c52.24,9.5,103.79,23.77,153.64,37.57,41.22,11.42,83.84,23.22,126,32,80.32,16.8,164.16,23.65,249.2,20.37,82-3.17,165.61-15.77,248.35-37.46,160.5-42.06,317.48-118.45,454-220.92l27.62,36.79c-141.22,106-303.73,185.07-469.93,228.63-86,22.53-172.86,35.63-258.25,38.93-88.78,3.42-176.39-3.75-260.39-21.32-43.62-9.12-87-21.12-128.88-32.72C946.53,121.14,896,107.15,845.8,98c-107.22-19.5-197.16-11.8-267.35,22.86C500.91,159.19,444,231.72,389,301.86c-14.37,18.33-29.23,37.27-44.28,55.42A1196.1,1196.1,0,0,1,122.15,564.54,1195.44,1195.44,0,0,1-145.38,709.23Z" transform="translate(1068.69 247.07)"/><g class="cls-12"><path class="cls-13" d="M2049,2199.94l1.64-79.16,12.61.26c39.46-67.65,102.11-112.79,190.75-137.64,84.67-23.73,179-25.85,270.14-27.9,45-1,87.61-2,126.42-5.58,61.33-5.7,105.31-16.76,142.6-35.86,26.28-13.46,47.52-31.07,63.12-52.34a152.73,152.73,0,0,0,27.79-67c9.46-59.38-13.65-123.81-61.81-172.35-26-26.2-57-49.4-89.91-74-62.24-46.53-126.61-94.64-157-166-19.64-46.14-19.68-98.61-.12-144,18-41.73,51-73.23,92.87-88.71,63.47-23.45,139-30,224.64-19.33,71.39,8.86,148.62,30.26,217.46,60.27l-8.79,20.16c-118.71-51.73-292.88-89.52-425.68-40.46-36.19,13.37-64.7,40.63-80.3,76.78-17.19,39.84-17.13,86,.16,126.63,28.05,65.93,90,112.23,149.91,157,32.07,24,65.22,48.76,92.36,76.1,53.09,53.51,78.48,125,67.92,191.31-9.27,58.18-45.71,106.27-102.61,135.41-39.9,20.44-86.35,32.22-150.59,38.18-39.58,3.68-82.52,4.65-128,5.67-89.82,2-182.7,4.11-264.69,27.1-43.87,12.29-79.91,29.24-110.16,51.81-34.1,25.42-59.87,57.19-78.78,97.1Z" transform="translate(1068.69 247.07)"/></g><path class="cls-9" d="M2033.09,2199.94l1.64-79.16,12.61.26c39.46-67.65,102.11-112.79,190.75-137.64,84.67-23.73,179-25.85,270.14-27.9,45.06-1,87.61-2,126.43-5.58,61.32-5.7,105.3-16.76,142.59-35.86,26.28-13.46,47.52-31.07,63.12-52.34a152.86,152.86,0,0,0,27.8-67c9.46-59.38-13.65-123.81-61.82-172.35-26-26.2-57-49.4-89.91-74-62.24-46.53-126.61-94.64-157-166-19.64-46.14-19.68-98.61-.12-144,18-41.73,51-73.23,92.87-88.71,63.48-23.45,139.05-30,224.64-19.33,71.39,8.86,148.62,30.26,217.46,60.27l-8.79,20.16c-118.71-51.73-292.87-89.52-425.68-40.46-36.18,13.37-64.7,40.63-80.3,76.78-17.18,39.84-17.13,86,.16,126.63,28.06,65.93,90,112.23,149.91,157,32.07,24,65.23,48.76,92.36,76.1,53.09,53.51,78.48,125,67.92,191.31-9.27,58.18-45.71,106.27-102.61,135.41-39.9,20.44-86.35,32.22-150.59,38.18-39.58,3.68-82.51,4.65-128,5.67-89.82,2-182.69,4.11-264.69,27.1-43.87,12.29-79.9,29.24-110.16,51.81-34.1,25.42-59.86,57.19-78.78,97.1Z" transform="translate(1068.69 247.07)"/></g></svg>